<?xml version="1.0" standalone="no"?>
<!DOCTYPE svg PUBLIC "-//W3C//DTD SVG 20010904//EN"
 "http://www.w3.org/TR/2001/REC-SVG-20010904/DTD/svg10.dtd">
<svg version="1.0" xmlns="http://www.w3.org/2000/svg"
 width="102.000000pt" height="102.000000pt" viewBox="0 0 102.000000 102.000000"
 preserveAspectRatio="xMidYMid meet">
<metadata>
Created by potrace 1.14, written by Peter Selinger 2001-2017
</metadata>
<g transform="translate(0.000000,102.000000) scale(0.100000,-0.100000)"
fill="#000000" stroke="none">
<path d="M750 774 c-14 -8 -59 -59 -100 -111 -81 -103 -112 -130 -159 -139
-41 -9 -29 -24 19 -24 64 0 88 18 160 124 97 143 135 160 223 99 50 -35 52
-42 28 -84 -10 -19 -40 -100 -65 -180 -33 -104 -54 -156 -75 -179 -28 -32 -28
-35 -13 -57 l17 -23 36 40 c33 36 70 125 82 200 3 14 8 45 12 70 11 64 39 124
71 149 31 25 33 23 -61 81 -79 49 -135 60 -175 34z"/>
<path d="M150 501 c-19 -4 -46 -13 -60 -21 -34 -18 -91 -62 -87 -66 2 -2 26 3
53 12 71 22 213 27 265 9 23 -8 85 -46 138 -84 111 -78 137 -94 154 -88 7 2 1
9 -12 17 -14 7 -54 40 -90 74 -89 84 -130 113 -179 130 -53 19 -136 27 -182
17z"/>
</g>
</svg>
