<svg width="100" height="71" viewBox="0 0 100 71" fill="none" xmlns="http://www.w3.org/2000/svg">
<g clip-path="url(#clip0_19_76)">
<path d="M66.5358 1.49173C65.1204 2.31458 61.7681 5.75558 59.0863 9.04697C54.1695 15.1061 50.3702 17.7991 46.422 17.8739C43.5166 17.9487 46.1985 19.37 49.2528 19.37C53.946 19.37 56.4789 17.5747 61.0231 11.1415C67.5788 1.64134 71.3781 0.220055 78.1572 4.48391C80.1686 5.75558 81.9565 6.95245 82.1055 7.02725C82.18 7.17686 81.435 8.52334 80.3176 9.94463C79.2001 11.4407 77.1888 16.0786 75.9223 20.2676C73.017 29.4686 71.6761 32.1615 68.9942 34.3309L66.9828 35.9017L68.5472 37.3978L70.0371 38.8939L72.272 37.0238C75.4009 34.4057 77.4867 29.5434 79.1256 21.3149C80.8391 12.862 82.18 10.0942 85.3833 8.44854L87.7672 7.17686L85.9048 6.35402C84.8618 5.90519 81.8075 4.25949 79.1256 2.6886C73.464 -0.453182 70.4096 -0.827206 66.5358 1.49173Z" fill="#30A3E6"/>
<path d="M17.9645 20.0432C14.6867 21.3896 9.621 24.5314 10.068 24.9803C10.217 25.1299 12.6753 24.6062 15.5062 23.8582C21.9128 22.1377 30.0329 21.9881 34.9496 23.4842C36.961 24.0826 41.3562 26.4015 44.6341 28.6457C52.2326 33.7324 54.84 35.0789 57.0004 35.004C58.4158 34.9292 58.2668 34.7796 56.2554 34.1064C54.9145 33.7324 51.1897 31.0394 48.0609 28.1968C40.2388 21.1652 35.4682 19.4753 27.798 18.8463C24.5071 18.5764 20.6464 18.9211 17.9645 20.0432Z" fill="#30A3E6"/>
<path d="M14.5643 53.0047C14.5643 54.6208 13.9607 55.8839 12.7534 56.7939C11.5547 57.6961 10.1976 58.1472 8.68209 58.1472C8.16835 58.1472 7.65035 58.0923 7.12805 57.9825C7.05099 57.7707 6.90115 57.4882 6.67854 57.1352L6.94825 56.8763C7.30786 56.9862 7.63749 57.0411 7.93717 57.0411C8.80196 57.0411 9.4955 56.7626 10.0178 56.2056C10.5401 55.6407 10.8012 54.8523 10.8012 53.8402C10.8012 51.6514 9.72669 50.557 7.57757 50.557C7.32071 50.557 6.80697 50.6041 6.03637 50.6982C5.95931 50.8865 5.92079 52.1692 5.92079 54.5463V60.7715C5.92079 62.6386 5.97643 63.8546 6.08773 64.4195C6.13056 64.647 6.27613 64.7921 6.52442 64.8549C6.60148 64.8706 7.18799 64.9098 8.28395 64.9725L8.42522 65.102V65.8787L8.29678 65.9963C7.12377 65.9493 5.71957 65.9257 4.08418 65.9257C2.24331 65.9257 0.924729 65.9493 0.12844 65.9963L0 65.8904V65.102L0.141286 64.9725C1.00607 64.9255 1.50268 64.8863 1.63111 64.8549C1.87942 64.7921 2.02497 64.647 2.06778 64.4195C2.17909 63.8546 2.23476 62.6386 2.23476 60.7715V54.5463C2.23476 52.6792 2.17909 51.4632 2.06778 50.8983C2.02496 50.6708 1.8794 50.5257 1.63111 50.4629C1.50268 50.4315 1.00179 50.3923 0.12844 50.3452L0 50.2158V49.4391L0.141286 49.3214C0.980379 49.3685 2.26899 49.392 4.00712 49.392C4.72634 49.392 5.76238 49.3803 7.11521 49.3567C8.46804 49.3332 9.24719 49.3214 9.45268 49.3214C11.7987 49.3214 13.3228 49.8666 14.0249 50.9571C14.3845 51.522 14.5643 52.2045 14.5643 53.0047V53.0047Z" fill="#30A3E6"/>
<path d="M29.8123 61.9953C29.6154 63.1407 29.5169 64.4351 29.5169 65.8787L29.3826 65.9963L19.6192 65.9257C17.9898 65.9257 16.8393 65.9493 16.1678 65.9963L16.0335 65.8787V65.5492L16.1007 65.4079C16.7632 65.0392 17.1214 64.8078 17.1751 64.7136C17.2557 64.5646 17.3049 64.0429 17.3228 63.1485L17.3631 60.5126V54.5463C17.3631 52.6791 17.3049 51.4631 17.1885 50.8983C17.1437 50.6708 16.9915 50.5256 16.7319 50.4629C16.5976 50.4315 16.0739 50.3923 15.1607 50.3452L15.0264 50.2275V49.4273L15.1607 49.3214C16.0649 49.3685 17.4616 49.392 19.3507 49.392C21.0339 49.392 24.2346 49.3685 28.9529 49.3214L29.1006 49.4156L28.926 50.7218C28.8724 51.1376 28.8321 51.4906 28.8052 51.7809L28.7112 52.8753L28.5769 53.0047H27.798L27.6637 52.887C27.6547 51.8201 27.5831 51.2121 27.4488 51.063C27.3503 50.9532 26.8668 50.8669 25.9984 50.8041C25.1389 50.7414 24.3823 50.71 23.7288 50.71C22.9498 50.71 22.162 50.7375 21.3652 50.7924C21.2667 51.6161 21.2174 52.7576 21.2174 54.2168V56.6527C21.9247 56.692 22.4977 56.7116 22.9364 56.7116L24.6957 56.6998C25.5194 56.6919 25.985 56.6331 26.0924 56.5233C26.2356 56.3821 26.3296 55.8525 26.3744 54.9346L26.5087 54.817H27.3413L27.4756 54.9346C27.4398 55.8133 27.4219 56.6174 27.4219 57.347C27.4219 58.1394 27.4398 59.0063 27.4756 59.9477L27.3413 60.0536H26.4416L26.3073 59.9359C26.3073 59.0337 26.2356 58.5003 26.0924 58.3355C25.9491 58.1629 25.5149 58.0492 24.7897 57.9942C24.2436 57.955 23.6616 57.9354 23.0439 57.9354C22.3903 57.9354 21.7815 57.955 21.2174 57.9942V61.5834C21.2174 62.6111 21.2398 63.6075 21.2846 64.5724H23.1111C25.7254 64.5724 27.328 64.4822 27.9189 64.3018C28.0174 64.2704 28.089 64.2272 28.1337 64.1723C28.2233 64.0625 28.3083 63.8271 28.3889 63.4663L28.7112 62.0071L28.8455 61.8776H29.6647L29.8123 61.9953Z" fill="#30A3E6"/>
<path d="M47.9339 63.8664L47.3238 65.0667C45.4583 65.9767 43.3717 66.4318 41.0641 66.4318C36.4488 66.4318 33.2924 64.9569 31.5949 62.0071C30.808 60.642 30.4146 59.1632 30.4146 57.5706C30.4146 54.9974 31.3783 52.9459 33.3057 51.4161C35.2774 49.8392 37.9696 49.0508 41.3824 49.0508C43.5485 49.0508 45.6661 49.3999 47.735 50.0981L47.9074 50.2746C47.6068 51.3573 47.4211 52.6243 47.3504 54.0756L47.231 54.1933H46.4485L46.3159 54.0638C46.2893 53.1146 46.2407 52.4556 46.17 52.0869C45.0648 50.9807 43.469 50.4276 41.3824 50.4276C39.2339 50.4276 37.5496 51.0317 36.3295 52.2398C35.1094 53.448 34.4993 55.0876 34.4993 57.1588C34.4993 59.9595 35.5868 62.1091 37.7618 63.6075C38.92 64.4077 40.4717 64.8078 42.4168 64.8078C44.1851 64.8078 45.9136 64.4038 47.6023 63.5957L47.9339 63.8664Z" fill="#30A3E6"/>
<path d="M66.8012 49.4912V50.4895L66.6576 50.6408C65.7444 50.8021 65.1008 51.0945 64.7268 51.518C64.3615 51.9315 63.6179 53.4037 62.4959 55.9348C61.4 58.4255 60.2997 60.9111 59.1951 63.3918C57.3164 67.4253 55.9683 69.7345 55.1507 70.3193C54.5245 70.7731 53.8026 71 52.985 71C52.6197 71 51.6717 70.8803 51.5803 70.7882C51.4595 70.6072 51.4098 69.1804 51.4534 69.0724C51.4734 68.8795 51.9602 68.7468 52.1319 68.9249C52.7191 69.5338 53.3197 69.6727 53.889 69.4497C55.1042 68.9737 55.3913 68.0935 56.1293 66.9009C56.3695 66.5127 56.5152 66.197 56.7424 65.6757C54.6985 60.5431 53.0938 56.328 51.9283 53.0306C51.5543 51.9718 51.2412 51.3164 50.989 51.0643C50.7802 50.8525 50.1757 50.7113 49.1755 50.6408L49.032 50.4895V49.4912L49.1625 49.3097C49.693 49.3803 51.0672 49.4156 53.2851 49.4156C54.5289 49.4156 55.8205 49.3853 57.1599 49.3248L57.3034 49.4912V50.4895L57.186 50.6408C57.0468 50.6508 56.5728 50.7164 55.7639 50.8374C55.416 50.8878 55.2421 51.0491 55.2421 51.3214C55.2421 51.4021 55.2942 51.629 55.3986 52.0021C55.6422 52.8693 56.2162 54.4424 57.1208 56.7213L58.8951 61.1834L61.0608 55.7835C61.6262 54.3819 62.0306 53.2676 62.2741 52.4407C62.4046 52.0071 62.4698 51.7046 62.4698 51.5332C62.4698 51.271 62.1785 51.0643 61.5957 50.913C61.1434 50.792 60.7303 50.7013 60.3563 50.6408L60.2128 50.4895V49.4761L60.3563 49.3097C61.1913 49.3803 62.3394 49.4156 63.8006 49.4156C65.0182 49.4156 65.975 49.3853 66.6708 49.3248L66.8012 49.4912Z" fill="#30A3E6"/>
<path d="M82.3713 53.0047C82.3713 54.6208 81.7447 55.8839 80.4916 56.7939C79.2473 57.6961 77.8387 58.1472 76.2656 58.1472C75.7323 58.1472 75.1946 58.0923 74.6525 57.9825C74.5725 57.7707 74.417 57.4882 74.1859 57.1352L74.4659 56.8763C74.8391 56.9862 75.1813 57.0411 75.4924 57.0411C76.39 57.0411 77.1099 56.7626 77.652 56.2056C78.1942 55.6407 78.4652 54.8523 78.4652 53.8402C78.4652 51.6514 77.3499 50.557 75.1191 50.557C74.8525 50.557 74.3192 50.6041 73.5193 50.6982C73.4393 50.8865 73.3993 52.1692 73.3993 54.5463V60.7715C73.3993 62.6386 73.4571 63.8546 73.5727 64.4195C73.6171 64.647 73.7682 64.7921 74.0259 64.8549C74.1059 64.8706 74.7147 64.9098 75.8523 64.9725L75.999 65.102V65.8787L75.8656 65.9963C74.6481 65.9493 73.1905 65.9257 71.493 65.9257C69.5822 65.9257 68.2135 65.9493 67.387 65.9963L67.2537 65.8904V65.102L67.4003 64.9725C68.2979 64.9255 68.8134 64.8863 68.9467 64.8549C69.2045 64.7921 69.3555 64.647 69.4 64.4195C69.5155 63.8546 69.5733 62.6386 69.5733 60.7715V54.5463C69.5733 52.6792 69.5155 51.4632 69.4 50.8983C69.3555 50.6708 69.2044 50.5257 68.9467 50.4629C68.8134 50.4315 68.2935 50.3923 67.387 50.3452L67.2537 50.2158V49.4391L67.4003 49.3214C68.2713 49.3685 69.6088 49.392 71.413 49.392C72.1596 49.392 73.2349 49.3803 74.6392 49.3567C76.0434 49.3332 76.8521 49.3214 77.0654 49.3214C79.5006 49.3214 81.0826 49.8666 81.8114 50.9571C82.1847 51.522 82.3713 52.2045 82.3713 53.0047V53.0047Z" fill="#30A3E6"/>
<path d="M99.9999 63.8664L99.4091 65.0667C97.6025 65.9767 95.5819 66.4318 93.3471 66.4318C88.8776 66.4318 85.8209 64.9569 84.177 62.0071C83.4149 60.642 83.0339 59.1632 83.0339 57.5706C83.0339 54.9974 83.9672 52.9459 85.8338 51.4161C87.7431 49.8392 90.3503 49.0508 93.6554 49.0508C95.7531 49.0508 97.8038 49.3999 99.8073 50.0981L99.9743 50.2746C99.6831 51.3573 99.5033 52.6243 99.4348 54.0756L99.3192 54.1933H98.5615L98.4331 54.0638C98.4074 53.1146 98.3603 52.4556 98.2918 52.0869C97.2215 50.9807 95.676 50.4276 93.6554 50.4276C91.5747 50.4276 89.9436 51.0317 88.762 52.2398C87.5805 53.448 86.9897 55.0876 86.9897 57.1588C86.9897 59.9595 88.0428 62.1091 90.1491 63.6075C91.2708 64.4077 92.7734 64.8078 94.6571 64.8078C96.3696 64.8078 98.0435 64.4038 99.6789 63.5957L99.9999 63.8664Z" fill="#30A3E6"/>
</g>
<defs>
<clipPath id="clip0_19_76">
<rect width="100" height="71" fill="white"/>
</clipPath>
</defs>
</svg>
