<svg width="22" height="50" viewBox="0 0 22 50" fill="none" xmlns="http://www.w3.org/2000/svg">
<mask id="path-1-inside-1_77_389" fill="white">
<path fill-rule="evenodd" clip-rule="evenodd" d="M2.35355 33.5314L19.3241 16.5608L2.35355 33.5314Z"/>
</mask>
<path d="M0.93934 32.1172C0.158291 32.8982 0.158291 34.1646 0.93934 34.9456C1.72039 35.7267 2.98672 35.7267 3.76777 34.9456L0.93934 32.1172ZM20.7383 17.9751C21.5194 17.194 21.5194 15.9277 20.7383 15.1466C19.9573 14.3656 18.691 14.3656 17.9099 15.1466L20.7383 17.9751ZM3.76777 34.9456L20.7383 17.9751L17.9099 15.1466L0.93934 32.1172L3.76777 34.9456Z" fill="#30A3E6" mask="url(#path-1-inside-1_77_389)"/>
<mask id="path-3-inside-2_77_389" fill="white">
<path fill-rule="evenodd" clip-rule="evenodd" d="M2.64648 16.5312L19.617 33.5018L2.64648 16.5312Z"/>
</mask>
<path d="M4.0607 15.117C3.27965 14.336 2.01332 14.336 1.23227 15.117C0.451222 15.8981 0.451222 17.1644 1.23227 17.9455L4.0607 15.117ZM18.2028 34.916C18.9839 35.6971 20.2502 35.6971 21.0313 34.916C21.8123 34.135 21.8123 32.8686 21.0313 32.0876L18.2028 34.916ZM1.23227 17.9455L18.2028 34.916L21.0313 32.0876L4.0607 15.117L1.23227 17.9455Z" fill="#30A3E6" mask="url(#path-3-inside-2_77_389)"/>
</svg>
